<svg xmlns="http://www.w3.org/2000/svg" viewBox="0 0 404 365.69"><defs><style>.cls-1{fill:#5064a5;}.cls-2{fill:#455c96;}.cls-3{fill:#5c76b7;}.cls-4{fill:#00507c;}</style></defs><title>Recurso 1</title><g id="Capa_2" data-name="Capa 2"><g id="Capa_1-2" data-name="Capa 1"><path class="cls-1" d="M4.24,274.72h0a7.3,7.3,0,0,1,.21-13.35l124.17-52.78a22.88,22.88,0,0,1,25.92,5.73l77.57,86a2.18,2.18,0,0,1,.54,1.73l-8.48,63.61"/><path class="cls-2" d="M41.09,246.51l90.24-38.67a16.09,16.09,0,0,1,12.92.11l129.2,58a.21.21,0,0,1,.09.31S224,365.08,223.93,365L43.72,245.29A18.72,18.72,0,0,0,41.09,246.51Z"/><path class="cls-1" d="M232.78,301.09h0l141.29-58.82a15,15,0,0,0,5.33-24L184.07,3.86A8.53,8.53,0,0,0,174,2L46.85,65.16"/><polyline class="cls-2" points="46.85 65.16 269.03 96.82 94.06 123.89"/><path class="cls-3" d="M261.21,95.82l-208-26.49c-9-1.14-10.67-13.51-2.27-17L171.18,2.62A34.53,34.53,0,0,1,188.9.3L396.29,27.67c9,1.19,10.61,13.61,2.15,17L276.34,93.87A30.08,30.08,0,0,1,261.21,95.82Z"/><polyline class="cls-4" points="232.23 301.21 377.31 240.18 224.17 365.69"/><polyline class="cls-3" points="232.23 301.21 377.31 240.18 224.17 365.69"/></g></g></svg>