<?xml version="1.0" encoding="utf-8"?>
<!-- Generator: Adobe Illustrator 22.0.0, SVG Export Plug-In . SVG Version: 6.00 Build 0)  -->
<svg version="1.1" id="Capa_1" xmlns="http://www.w3.org/2000/svg" xmlns:xlink="http://www.w3.org/1999/xlink" x="0px" y="0px"
	 viewBox="0 0 404 365.7" style="enable-background:new 0 0 404 365.7;" xml:space="preserve">
<style type="text/css">
	.st0{fill:#931D1A;}
	.st1{fill:#861A18;}
	.st2{fill:#A7201D;}
	.st3{fill:#BA2421;}
	.st4{fill:#00507C;}
</style>
<title>Recurso 1</title>
<path class="st0" d="M4.2,274.7L4.2,274.7c-3.7-1.7-5.3-6-3.6-9.7c0.8-1.6,2.1-3,3.8-3.7l124.2-52.8c9-3.8,19.4-1.5,25.9,5.7
	l77.6,86c0.4,0.5,0.6,1.1,0.5,1.7l-8.5,63.6"/>
<path class="st1" d="M41.1,246.5l90.2-38.7c4.1-1.8,8.8-1.7,12.9,0.1l129.2,58c0.1,0,0.2,0.2,0.1,0.3l0,0c0,0-49.5,98.8-49.6,98.7
	L43.7,245.3C42.8,245.6,41.9,246,41.1,246.5z"/>
<path class="st2" d="M232.8,302.1L232.8,302.1l141.3-58.8c7.7-3.2,11.3-11.9,8.1-19.6c-0.7-1.6-1.6-3.1-2.8-4.4L184.1,4.9
	c-2.6-2.8-6.7-3.5-10.1-1.9L46.8,66.2"/>
<polyline class="st0" points="46.8,65.2 269,96.8 94.1,123.9 "/>
<path class="st3" d="M261.2,95.8l-208-26.5c-9-1.1-10.7-13.5-2.3-17L171.2,2.6c5.6-2.3,11.7-3.1,17.7-2.3l207.4,27.4
	c9,1.2,10.6,13.6,2.1,17L276.3,93.9C271.5,95.8,266.3,96.5,261.2,95.8z"/>
<polyline class="st4" points="232.2,301.2 377.3,240.2 224.2,365.7 "/>
<polyline class="st3" points="232.2,301.2 377.3,240.2 224.2,365.7 "/>
</svg>
