<?xml version="1.0" encoding="utf-8"?>
<!-- Generator: Adobe Illustrator 22.0.0, SVG Export Plug-In . SVG Version: 6.00 Build 0)  -->
<svg version="1.1" xmlns="http://www.w3.org/2000/svg" xmlns:xlink="http://www.w3.org/1999/xlink" x="0px" y="0px"
	 viewBox="0 0 404 365.7" style="enable-background:new 0 0 404 365.7;" xml:space="preserve">
<style type="text/css">
	.st0{display:none;}
	.st1{display:inline;fill:none;stroke:#B71616;stroke-width:9;stroke-linecap:round;stroke-miterlimit:10;}
	.st2{fill:#FFFFFF;}
</style>
<g id="Capa_1" class="st0">
	<title>Recurso 1</title>
	<line class="st1" x1="263.9" y1="178" x2="171" y2="243"/>
	<title>Recurso 1</title>
	<line class="st1" x1="204" y1="134.7" x2="170.7" y2="111.3"/>
	<line class="st1" x1="170.7" y1="174.8" x2="266.2" y2="108"/>
	<line class="st1" x1="168.2" y1="174.8" x2="75.3" y2="109.8"/>
	<line class="st1" x1="74.6" y1="179" x2="167.4" y2="244"/>
	<line class="st1" x1="74.6" y1="179" x2="74.6" y2="109.8"/>
	<line class="st1" x1="169.4" y1="39.6" x2="169.4" y2="108.8"/>
	<line class="st1" x1="169.4" y1="39.6" x2="266.2" y2="108"/>
	<line class="st1" x1="264.3" y1="176.9" x2="226.8" y2="150.6"/>
</g>
<g id="Capa_2">
	<polygon class="st2" points="302.2,221.7 332.9,243.2 200.9,334.7 65.7,240 65.7,160.8 202,255.5 380.5,133.7 191.3,0 191.3,141.1 
		226,167.1 235.5,160.5 248.2,151.9 216.8,128.4 216.8,49.2 335.9,133.4 202.1,224.6 40.2,112.1 40.2,253.2 200.8,365.7 
		377.4,243.3 324.6,206.3 	"/>
</g>
</svg>
